<?xml version="1.0" standalone="no"?>
<!DOCTYPE svg PUBLIC "-//W3C//DTD SVG 20010904//EN"
 "http://www.w3.org/TR/2001/REC-SVG-20010904/DTD/svg10.dtd">
<svg version="1.0" xmlns="http://www.w3.org/2000/svg"
 width="640.000000pt" height="640.000000pt" viewBox="0 0 640.000000 640.000000"
 preserveAspectRatio="xMidYMid meet">
<metadata>
Created by potrace 1.16, written by Peter Selinger 2001-2019
</metadata>
<g transform="translate(0.000000,640.000000) scale(0.100000,-0.100000)"
fill="#000000" stroke="none">
<path d="M1280 3200 l0 -1920 863 2 862 3 0 1915 0 1915 -862 3 -863 2 0
-1920z"/>
<path d="M3397 5113 c-4 -3 -7 -345 -7 -758 0 -622 2 -755 14 -764 10 -8 243
-10 862 -9 l849 3 3 768 2 767 -858 0 c-472 0 -862 -3 -865 -7z"/>
<path d="M4355 3188 c-3 -7 -4 -438 -3 -958 l3 -945 383 -3 382 -2 0 960 0
960 -380 0 c-295 0 -382 -3 -385 -12z"/>
</g>
</svg>
